<svg xmlns="http://www.w3.org/2000/svg" viewBox="0 0 471.2 471.2">
  <path d="M457.7 230.2c-7.5 0-13.5 6-13.5 13.5v122.8c0 33.3-27.2 60.4-60.5 60.4H87.5C54 427 27 399 27 366V241.8c0-7.6-6-13.6-13.5-13.6S0 234 0 241.7v124.8C0 414.8 39.3 454 87.5 454h296.2c48.3 0 87.5-39.4 87.5-87.6V243.8c0-7.4-6-13.5-13.5-13.5z"/>
  <path d="M226 346.8c2.7 2.5 6.2 4 9.6 4s7-1.4 9.5-4l86-86c5.8-5.2 5.8-13.7 0-19-5-5.3-14-5.3-19 0l-63 62.8v-274c0-7.4-6-13.4-13-13.4s-14 6-14 13.8v273.8L159.5 242c-5.3-5.3-13.8-5.3-19 0-5.4 5.3-5.4 13.8 0 19l85.8 86z"/>
</svg>
